<?xml version="1.0" encoding="UTF-8" standalone="no"?>
<svg
   xmlns:dc="http://purl.org/dc/elements/1.1/"
   xmlns:cc="http://creativecommons.org/ns#"
   xmlns:rdf="http://www.w3.org/1999/02/22-rdf-syntax-ns#"
   xmlns:svg="http://www.w3.org/2000/svg"
   xmlns="http://www.w3.org/2000/svg"
   xmlns:sodipodi="http://sodipodi.sourceforge.net/DTD/sodipodi-0.dtd"
   xmlns:inkscape="http://www.inkscape.org/namespaces/inkscape"
   width="970"
   height="380"
   viewBox="0 0 256.64582 100.54168"
   version="1.1"
   id="svg12553"
   inkscape:version="1.0.1 (3bc2e813f5, 2020-09-07)"
   sodipodi:docname="ChanceSeq.svg">
  <defs
     id="defs12547" />
  <sodipodi:namedview
     id="base"
     pagecolor="#ffffff"
     bordercolor="#666666"
     borderopacity="1.0"
     inkscape:pageopacity="0.0"
     inkscape:pageshadow="2"
     inkscape:zoom="0.98994949"
     inkscape:cx="716.01623"
     inkscape:cy="167.11608"
     inkscape:document-units="px"
     inkscape:current-layer="layer1"
     showgrid="true"
     fit-margin-top="0"
     fit-margin-left="0"
     fit-margin-right="0"
     fit-margin-bottom="0"
     units="px"
     inkscape:window-width="1920"
     inkscape:window-height="1016"
     inkscape:window-x="0"
     inkscape:window-y="27"
     inkscape:window-maximized="1"
     inkscape:document-rotation="0"
     height="128mm"
     showguides="true">
    <inkscape:grid
       type="xygrid"
       id="grid12870"
       originx="-20.372917"
       originy="84.666661" />
  </sodipodi:namedview>
  <metadata
     id="metadata12550">
    <rdf:RDF>
      <cc:Work
         rdf:about="">
        <dc:format>image/svg+xml</dc:format>
        <dc:type
           rdf:resource="http://purl.org/dc/dcmitype/StillImage" />
        <dc:title></dc:title>
      </cc:Work>
    </rdf:RDF>
  </metadata>
  <g
     inkscape:label="Layer 1"
     inkscape:groupmode="layer"
     id="layer1"
     transform="translate(-26.543497,-161.30655)">
    <path
       inkscape:connector-curvature="0"
       id="path33453"
       d="M 26.543497,161.30654 H 284.51226 V 261.84821 H 26.543497 Z m 0,0"
       style="fill:#e6e6e6;fill-opacity:1;fill-rule:nonzero;stroke:none;stroke-width:0.474835" />
    <g
       aria-label="Clock "
       id="text354"
       style="font-style:normal;font-weight:normal;font-size:4.23333px;line-height:1.25;font-family:sans-serif;fill:#000000;fill-opacity:1;stroke:none;stroke-width:0.264583"
       transform="translate(-11.689075,-35.020092)">
      <path
         d="m 49.032232,174.33315 v 0.44028 q -0.210839,-0.19637 -0.450618,-0.29352 -0.237711,-0.0971 -0.506428,-0.0971 -0.529167,0 -0.810286,0.32452 -0.28112,0.32246 -0.28112,0.93431 0,0.60978 0.28112,0.93431 0.281119,0.32246 0.810286,0.32246 0.268717,0 0.506428,-0.0971 0.239779,-0.0971 0.450618,-0.29352 v 0.43615 q -0.219107,0.14883 -0.465087,0.22324 -0.243913,0.0744 -0.516764,0.0744 -0.700732,0 -1.103808,-0.42788 -0.403075,-0.42994 -0.403075,-1.17202 0,-0.74414 0.403075,-1.17202 0.403076,-0.42995 1.103808,-0.42995 0.276985,0 0.520898,0.0744 0.24598,0.0724 0.460953,0.21911 z"
         style="font-size:4.23333px;stroke-width:0.264583"
         id="path358" />
      <path
         d="m 49.660617,173.96521 h 0.380339 v 3.21634 h -0.380339 z"
         style="font-size:4.23333px;stroke-width:0.264583"
         id="path360" />
      <path
         d="m 51.733874,175.1331 q -0.305924,0 -0.483691,0.23978 -0.177767,0.23771 -0.177767,0.65319 0,0.41547 0.1757,0.65525 0.177767,0.23771 0.485758,0.23771 0.303857,0 0.481624,-0.23978 0.177767,-0.23977 0.177767,-0.65318 0,-0.41135 -0.177767,-0.65113 -0.177767,-0.24184 -0.481624,-0.24184 z m 0,-0.32246 q 0.496093,0 0.77928,0.32246 0.283186,0.32246 0.283186,0.89297 0,0.56844 -0.283186,0.89296 -0.283187,0.32246 -0.77928,0.32246 -0.498161,0 -0.781347,-0.32246 -0.28112,-0.32452 -0.28112,-0.89296 0,-0.57051 0.28112,-0.89297 0.283186,-0.32246 0.781347,-0.32246 z"
         style="font-size:4.23333px;stroke-width:0.264583"
         id="path362" />
      <path
         d="m 55.09284,174.95533 v 0.35553 q -0.161231,-0.0889 -0.324528,-0.13229 -0.16123,-0.0455 -0.326595,-0.0455 -0.370003,0 -0.574641,0.23564 -0.204639,0.23358 -0.204639,0.65733 0,0.42374 0.204639,0.65939 0.204638,0.23357 0.574641,0.23357 0.165365,0 0.326595,-0.0434 0.163297,-0.0455 0.324528,-0.13435 v 0.3514 q -0.159164,0.0744 -0.330729,0.11162 -0.169499,0.0372 -0.361735,0.0372 -0.522965,0 -0.830956,-0.32866 -0.307992,-0.32866 -0.307992,-0.88676 0,-0.56638 0.310059,-0.89091 0.312125,-0.32452 0.853694,-0.32452 0.175699,0 0.343131,0.0372 0.167431,0.0351 0.324528,0.10749 z"
         style="font-size:4.23333px;stroke-width:0.264583"
         id="path364" />
      <path
         d="m 55.739828,173.96521 h 0.382405 v 1.89962 l 1.134813,-0.99838 h 0.485758 l -1.227831,1.08313 1.279508,1.23197 h -0.496094 l -1.176154,-1.13068 v 1.13068 h -0.382405 z"
         style="font-size:4.23333px;stroke-width:0.264583"
         id="path366" />
    </g>
    <g
       aria-label="Run "
       id="text371"
       style="font-style:normal;font-weight:normal;font-size:2.82222px;line-height:1.25;font-family:sans-serif;fill:#000000;fill-opacity:1;stroke:none;stroke-width:0.264583"
       transform="translate(7.781762,-35.061452)">
      <path
         d="m 42.864979,178.27433 q 0.08957,0.0303 0.173632,0.12953 0.08544,0.0992 0.170877,0.27285 l 0.282498,0.56224 h -0.299035 l -0.263205,-0.52779 q -0.101974,-0.2067 -0.198437,-0.27422 -0.09509,-0.0675 -0.260449,-0.0675 h -0.303168 v 0.86954 h -0.278364 v -2.05741 h 0.628385 q 0.352778,0 0.52641,0.14745 0.173633,0.14745 0.173633,0.44511 0,0.1943 -0.09095,0.32246 -0.08957,0.12816 -0.261827,0.17777 z m -0.697287,-0.86403 v 0.73036 h 0.350021 q 0.201194,0 0.303168,-0.0923 0.103353,-0.0937 0.103353,-0.27423 0,-0.18052 -0.103353,-0.27147 -0.101974,-0.0923 -0.303168,-0.0923 z"
         style="font-size:2.82222px;stroke-width:0.264583"
         id="path375" />
      <path
         d="m 43.686289,178.62986 v -0.93431 h 0.253559 v 0.92466 q 0,0.21911 0.08544,0.32935 0.08544,0.10887 0.256315,0.10887 0.205327,0 0.323839,-0.13091 0.119889,-0.13092 0.119889,-0.35692 v -0.87505 h 0.253559 v 1.5434 h -0.253559 v -0.23702 q -0.09233,0.14056 -0.214974,0.20946 -0.121267,0.0675 -0.282498,0.0675 -0.265961,0 -0.403765,-0.16537 -0.137803,-0.16536 -0.137803,-0.48369 z m 0.638031,-0.97152 z"
         style="font-size:2.82222px;stroke-width:0.264583"
         id="path377" />
      <path
         d="m 46.784116,178.3074 v 0.93155 h -0.253559 v -0.92328 q 0,-0.21911 -0.08544,-0.32798 -0.08544,-0.10886 -0.256315,-0.10886 -0.205327,0 -0.323838,0.13091 -0.118512,0.13092 -0.118512,0.35692 v 0.87229 h -0.254937 v -1.5434 h 0.254937 v 0.23978 q 0.09095,-0.13918 0.213596,-0.20808 0.124023,-0.0689 0.285254,-0.0689 0.265961,0 0.402387,0.16537 0.136425,0.16398 0.136425,0.48369 z"
         style="font-size:2.82222px;stroke-width:0.264583"
         id="path379" />
    </g>
    <g
       aria-label="Reset"
       id="text384"
       style="font-size:2.82222px;line-height:1.25;font-family:sans-serif;stroke-width:0.264583"
       transform="translate(-3.8723117,-33.004042)">
      <path
         d="m 68.277386,176.21692 q 0.08957,0.0303 0.173633,0.12954 0.08544,0.0992 0.170877,0.27285 l 0.282498,0.56224 H 68.60536 l -0.263206,-0.52779 q -0.101975,-0.20671 -0.198437,-0.27423 -0.09508,-0.0675 -0.260449,-0.0675 h -0.303169 v 0.86954 h -0.278364 v -2.05741 h 0.628386 q 0.352778,0 0.52641,0.14745 0.173633,0.14745 0.173633,0.4451 0,0.19431 -0.09095,0.32247 -0.08957,0.12815 -0.261828,0.17776 z m -0.697287,-0.86403 v 0.73036 h 0.350022 q 0.201193,0 0.303168,-0.0923 0.103353,-0.0937 0.103353,-0.27423 0,-0.18052 -0.103353,-0.27147 -0.101975,-0.0923 -0.303168,-0.0923 z"
         style="font-size:2.82222px;stroke-width:0.264583"
         id="path386" />
      <path
         d="m 70.445041,176.34646 v 0.12402 H 69.27922 q 0.01654,0.26183 0.157097,0.39963 0.141937,0.13643 0.394118,0.13643 0.146073,0 0.282498,-0.0358 0.137804,-0.0358 0.272852,-0.10749 v 0.23978 q -0.136426,0.0579 -0.279742,0.0882 -0.143316,0.0303 -0.290766,0.0303 -0.369314,0 -0.585666,-0.21497 -0.214974,-0.21498 -0.214974,-0.58153 0,-0.37896 0.20395,-0.60083 0.205327,-0.22324 0.552593,-0.22324 0.311436,0 0.491959,0.20119 0.181902,0.19982 0.181902,0.54433 z m -0.25356,-0.0744 q -0.0028,-0.20808 -0.117133,-0.3321 -0.112999,-0.12403 -0.300412,-0.12403 -0.212218,0 -0.340376,0.11989 -0.126779,0.11989 -0.146072,0.33762 z"
         style="font-size:2.82222px;stroke-width:0.264583"
         id="path388" />
      <path
         d="m 71.845127,175.68362 v 0.23978 q -0.107487,-0.0551 -0.223242,-0.0827 -0.115755,-0.0276 -0.239778,-0.0276 -0.188792,0 -0.283876,0.0579 -0.09371,0.0579 -0.09371,0.17364 0,0.0882 0.06752,0.13918 0.06752,0.0496 0.271474,0.0951 l 0.08682,0.0193 q 0.270095,0.0579 0.383095,0.16398 0.114377,0.10473 0.114377,0.29353 0,0.21497 -0.170877,0.34037 -0.169499,0.1254 -0.467155,0.1254 -0.124023,0 -0.259071,-0.0248 -0.13367,-0.0234 -0.282498,-0.0717 v -0.26183 q 0.14056,0.073 0.276986,0.11025 0.136425,0.0358 0.270095,0.0358 0.179145,0 0.275608,-0.0606 0.09646,-0.062 0.09646,-0.17363 0,-0.10336 -0.07028,-0.15848 -0.0689,-0.0551 -0.304547,-0.10611 l -0.08819,-0.0207 q -0.235645,-0.0496 -0.340376,-0.15158 -0.104731,-0.10335 -0.104731,-0.2825 0,-0.21773 0.154341,-0.33624 0.15434,-0.11851 0.438216,-0.11851 0.14056,0 0.264583,0.0207 0.124024,0.0207 0.228754,0.062 z"
         style="font-size:2.82222px;stroke-width:0.264583"
         id="path390" />
      <path
         d="m 73.651735,176.34646 v 0.12402 h -1.16582 q 0.01654,0.26183 0.157096,0.39963 0.141938,0.13643 0.394119,0.13643 0.146072,0 0.282498,-0.0358 0.137804,-0.0358 0.272852,-0.10749 v 0.23978 q -0.136426,0.0579 -0.279742,0.0882 -0.143316,0.0303 -0.290766,0.0303 -0.369314,0 -0.585666,-0.21497 -0.214974,-0.21498 -0.214974,-0.58153 0,-0.37896 0.203949,-0.60083 0.205328,-0.22324 0.552594,-0.22324 0.311436,0 0.491959,0.20119 0.181901,0.19982 0.181901,0.54433 z m -0.253559,-0.0744 q -0.0028,-0.20808 -0.117133,-0.3321 -0.112999,-0.12403 -0.300412,-0.12403 -0.212218,0 -0.340376,0.11989 -0.126779,0.11989 -0.146072,0.33762 z"
         style="font-size:2.82222px;stroke-width:0.264583"
         id="path392" />
      <path
         d="m 74.318706,175.19993 v 0.43822 h 0.522276 v 0.19706 h -0.522276 v 0.83784 q 0,0.18879 0.05099,0.24254 0.05237,0.0537 0.21084,0.0537 h 0.260449 v 0.21222 h -0.260449 q -0.293522,0 -0.405143,-0.10887 -0.111621,-0.11024 -0.111621,-0.39963 v -0.83784 h -0.186036 v -0.19706 h 0.186036 v -0.43822 z"
         style="font-size:2.82222px;stroke-width:0.264583"
         id="path394" />
    </g>
    <g
       aria-label="Steps"
       id="text399"
       style="font-size:4.23333px;line-height:1.25;font-family:sans-serif;stroke-width:0.264583"
       transform="translate(1.9609263,-35.061432)">
      <path
         d="m 75.096601,174.16364 v 0.40721 q -0.237711,-0.11369 -0.448551,-0.1695 -0.21084,-0.0558 -0.40721,-0.0558 -0.341064,0 -0.527099,0.13229 -0.183968,0.13229 -0.183968,0.37621 0,0.20463 0.121956,0.31005 0.124023,0.10336 0.467155,0.16744 l 0.25218,0.0517 q 0.467155,0.0889 0.68833,0.3142 0.223242,0.22324 0.223242,0.59944 0,0.44855 -0.30179,0.68006 -0.299723,0.23151 -0.880566,0.23151 -0.219108,0 -0.467154,-0.0496 -0.24598,-0.0496 -0.510563,-0.14676 v -0.42995 q 0.254248,0.14263 0.49816,0.21498 0.243913,0.0724 0.479557,0.0724 0.357601,0 0.551904,-0.14056 0.194303,-0.14056 0.194303,-0.40101 0,-0.22738 -0.14056,-0.35554 -0.138492,-0.12815 -0.456819,-0.19223 l -0.254248,-0.0496 q -0.467154,-0.093 -0.675927,-0.29146 -0.208772,-0.19843 -0.208772,-0.5519 0,-0.40928 0.28732,-0.64492 0.289388,-0.23565 0.795817,-0.23565 0.217041,0 0.44235,0.0393 0.225309,0.0393 0.460953,0.11782 z"
         style="stroke-width:0.264583"
         id="path401" />
      <path
         d="m 76.293426,174.17604 v 0.65733 h 0.783414 v 0.29558 h -0.783414 v 1.25677 q 0,0.28319 0.07648,0.36381 0.07855,0.0806 0.31626,0.0806 h 0.390673 v 0.31833 h -0.390673 q -0.440283,0 -0.607715,-0.1633 -0.167431,-0.16536 -0.167431,-0.59945 v -1.25677 h -0.279053 v -0.29558 h 0.279053 v -0.65733 z"
         style="stroke-width:0.264583"
         id="path403" />
      <path
         d="m 79.557307,175.89583 v 0.18604 h -1.748729 q 0.0248,0.39274 0.235644,0.59944 0.212907,0.20464 0.591178,0.20464 0.219108,0 0.423746,-0.0537 0.206706,-0.0537 0.409277,-0.16123 v 0.35967 q -0.204638,0.0868 -0.419612,0.13229 -0.214974,0.0455 -0.436149,0.0455 -0.55397,0 -0.878498,-0.32246 -0.322461,-0.32246 -0.322461,-0.8723 0,-0.56844 0.305924,-0.90123 0.307992,-0.33486 0.82889,-0.33486 0.467154,0 0.737938,0.30179 0.272852,0.29972 0.272852,0.81648 z m -0.380338,-0.11162 q -0.0041,-0.31212 -0.1757,-0.49816 -0.169499,-0.18603 -0.450618,-0.18603 -0.318327,0 -0.510563,0.17983 -0.190169,0.17983 -0.219108,0.50643 z"
         style="stroke-width:0.264583"
         id="path405" />
      <path
         d="m 80.549493,176.8012 v 1.22783 h -0.382405 v -3.19566 h 0.382405 v 0.3514 q 0.119889,-0.20671 0.30179,-0.30593 0.183968,-0.10128 0.438216,-0.10128 0.421679,0 0.684196,0.33486 0.264583,0.33486 0.264583,0.88056 0,0.54571 -0.264583,0.88057 -0.262517,0.33486 -0.684196,0.33486 -0.254248,0 -0.438216,-0.0992 -0.181901,-0.10128 -0.30179,-0.30799 z m 1.293977,-0.80822 q 0,-0.41961 -0.173633,-0.65732 -0.171565,-0.23978 -0.473355,-0.23978 -0.30179,0 -0.475423,0.23978 -0.171566,0.23771 -0.171566,0.65732 0,0.41962 0.171566,0.65939 0.173633,0.23772 0.475423,0.23772 0.30179,0 0.473355,-0.23772 0.173633,-0.23977 0.173633,-0.65939 z"
         style="stroke-width:0.264583"
         id="path407" />
      <path
         d="m 84.344607,174.90158 v 0.35967 q -0.16123,-0.0827 -0.334863,-0.12403 -0.173633,-0.0413 -0.359668,-0.0413 -0.283186,0 -0.425813,0.0868 -0.14056,0.0868 -0.14056,0.26045 0,0.13229 0.101286,0.20877 0.101286,0.0744 0.40721,0.14263 l 0.130224,0.0289 q 0.405143,0.0868 0.574642,0.24598 0.171565,0.15709 0.171565,0.44028 0,0.32246 -0.256315,0.51056 -0.254247,0.1881 -0.700731,0.1881 -0.186035,0 -0.388607,-0.0372 -0.200504,-0.0351 -0.423746,-0.10749 v -0.39274 q 0.210839,0.10955 0.415478,0.16536 0.204638,0.0537 0.405143,0.0537 0.268717,0 0.413411,-0.0909 0.144694,-0.093 0.144694,-0.26045 0,-0.15503 -0.10542,-0.23771 -0.103353,-0.0827 -0.456819,-0.15917 l -0.132292,-0.031 q -0.353466,-0.0744 -0.510563,-0.22738 -0.157096,-0.15503 -0.157096,-0.42375 0,-0.32659 0.23151,-0.50436 0.231511,-0.17776 0.657324,-0.17776 0.21084,0 0.396875,0.031 0.186035,0.031 0.343131,0.093 z"
         style="stroke-width:0.264583"
         id="path409" />
    </g>
    <g
       aria-label="CLK"
       id="text60"
       style="font-style:normal;font-weight:normal;font-size:3.52778px;line-height:1.25;font-family:sans-serif;fill:#000000;fill-opacity:1;stroke:none;stroke-width:0.264583"
       transform="translate(-8.9293275,-43.683706)">
      <path
         d="m 257.15095,219.78703 v 0.36691 q -0.1757,-0.16364 -0.37552,-0.2446 -0.19809,-0.081 -0.42202,-0.081 -0.44098,0 -0.67524,0.27044 -0.23427,0.26871 -0.23427,0.77859 0,0.50815 0.23427,0.77859 0.23426,0.26872 0.67524,0.26872 0.22393,0 0.42202,-0.081 0.19982,-0.081 0.37552,-0.2446 v 0.36345 q -0.18259,0.12403 -0.38758,0.18604 -0.20326,0.062 -0.43063,0.062 -0.58395,0 -0.91984,-0.35657 -0.3359,-0.35829 -0.3359,-0.97668 0,-0.62012 0.3359,-0.97669 0.33589,-0.35829 0.91984,-0.35829 0.23082,0 0.43408,0.062 0.20498,0.0603 0.38413,0.18259 z"
         style="font-size:3.52778px;stroke-width:0.264583"
         id="path62" />
      <path
         d="m 257.68838,219.58894 h 0.34796 v 2.27893 h 1.25229 v 0.29284 h -1.60025 z"
         style="font-size:3.52778px;stroke-width:0.264583"
         id="path64" />
      <path
         d="m 259.65381,219.58894 h 0.34795 v 1.08693 l 1.15411,-1.08693 h 0.44786 l -1.27641,1.1989 1.36771,1.37287 h -0.4582 l -1.23507,-1.23852 v 1.23852 h -0.34795 z"
         style="font-size:3.52778px;stroke-width:0.264583"
         id="path66" />
    </g>
    <g
       aria-label="1"
       id="text9599"
       style="font-size:5.64444px;line-height:1.25;font-family:sans-serif;stroke-width:0.264583"
       transform="translate(-113.43267,13.390853)">
      <path
         d="m 147.99359,154.20781 h 0.90951 v -3.13917 l -0.98943,0.19844 v -0.50712 l 0.98391,-0.19843 h 0.55673 v 3.64628 h 0.90951 v 0.46854 h -2.37023 z"
         style="stroke-width:0.264583"
         id="path9661" />
    </g>
    <g
       aria-label="2"
       id="text9603"
       style="font-size:5.64444px;line-height:1.25;font-family:sans-serif;stroke-width:0.264583"
       transform="translate(-199.64467,25.355963)">
      <path
         d="m 248.02456,142.31717 h 1.94303 v 0.46854 h -2.61276 v -0.46854 q 0.31695,-0.32797 0.86265,-0.87918 0.54846,-0.55398 0.68902,-0.71383 0.26734,-0.30041 0.37207,-0.50712 0.10749,-0.20946 0.10749,-0.41065 0,-0.32797 -0.23151,-0.53468 -0.22875,-0.2067 -0.59807,-0.2067 -0.26183,0 -0.55397,0.0909 -0.28939,0.091 -0.62012,0.2756 v -0.56224 q 0.33624,-0.13504 0.62839,-0.20395 0.29214,-0.0689 0.53468,-0.0689 0.63941,0 1.01974,0.31971 0.38034,0.3197 0.38034,0.85438 0,0.25356 -0.0965,0.48231 -0.0937,0.226 -0.34451,0.53468 -0.0689,0.0799 -0.43822,0.46302 -0.36931,0.38034 -1.04179,1.0666 z"
         style="stroke-width:0.264583"
         id="path9664" />
    </g>
    <g
       aria-label="3"
       id="text9607"
       style="font-size:5.64444px;line-height:1.25;font-family:sans-serif;stroke-width:0.264583"
       transform="translate(-191.72371,41.230953)">
      <path
         d="m 254.52339,124.69207 q 0.39963,0.0854 0.62287,0.35554 0.226,0.27009 0.226,0.66697 0,0.60909 -0.41892,0.94257 -0.41892,0.33349 -1.19063,0.33349 -0.25907,0 -0.53467,-0.0524 -0.27286,-0.0496 -0.565,-0.15158 v -0.53743 q 0.23151,0.13504 0.50712,0.20394 0.27561,0.0689 0.57602,0.0689 0.52365,0 0.7965,-0.20671 0.27561,-0.2067 0.27561,-0.60082 0,-0.3638 -0.25631,-0.56775 -0.25356,-0.20671 -0.70832,-0.20671 h -0.47955 v -0.45751 h 0.5016 q 0.41066,0 0.62839,-0.16261 0.21773,-0.16536 0.21773,-0.47404 0,-0.31695 -0.226,-0.48507 -0.22324,-0.17088 -0.64217,-0.17088 -0.22875,0 -0.49058,0.0496 -0.26182,0.0496 -0.57602,0.15434 v -0.49609 q 0.31695,-0.0882 0.59256,-0.13229 0.27836,-0.0441 0.52365,-0.0441 0.6339,0 1.00322,0.28939 0.36931,0.28663 0.36931,0.77721 0,0.34175 -0.19568,0.57878 -0.19568,0.23426 -0.55673,0.32521 z"
         style="stroke-width:0.264583"
         id="path9667" />
    </g>
    <g
       aria-label="4"
       id="text9611"
       style="font-size:5.64444px;line-height:1.25;font-family:sans-serif;stroke-width:0.264583">
      <path
         d="m 76.026092,164.43745 -1.405597,2.19659 h 1.405597 z m -0.146071,-0.48507 h 0.700042 v 2.68166 h 0.587044 v 0.46302 h -0.587044 v 0.97014 h -0.553971 v -0.97014 h -1.857594 v -0.53743 z"
         style="stroke-width:0.264583"
         id="path9679" />
    </g>
    <g
       aria-label="5"
       id="text9615"
       style="font-size:5.64444px;line-height:1.25;font-family:sans-serif;stroke-width:0.264583"
       transform="translate(-83.250044,27.927323)">
      <path
         d="m 170.82134,136.02506 h 2.18557 v 0.46853 h -1.67569 v 1.00872 q 0.12126,-0.0413 0.24253,-0.0606 0.12127,-0.022 0.24254,-0.022 0.68901,0 1.0914,0.37758 0.40239,0.37759 0.40239,1.02251 0,0.66421 -0.41341,1.03353 -0.41342,0.36655 -1.16582,0.36655 -0.25907,0 -0.52917,-0.0441 -0.26734,-0.0441 -0.55397,-0.1323 V 139.484 q 0.24805,0.13505 0.51263,0.2012 0.26458,0.0661 0.55948,0.0661 0.4768,0 0.75517,-0.2508 0.27836,-0.2508 0.27836,-0.68075 0,-0.42995 -0.27836,-0.68075 -0.27837,-0.25081 -0.75517,-0.25081 -0.22324,0 -0.44648,0.0496 -0.22049,0.0496 -0.452,0.15434 z"
         style="stroke-width:0.264583"
         id="path9673" />
    </g>
    <g
       aria-label="6"
       id="text9619"
       style="font-size:5.64444px;line-height:1.25;font-family:sans-serif;stroke-width:0.264583"
       transform="translate(-56.750367,38.585103)">
      <path
         d="m 158.84618,127.27728 q -0.37482,0 -0.59531,0.25631 -0.21773,0.25632 -0.21773,0.7028 0,0.44373 0.21773,0.7028 0.22049,0.25631 0.59531,0.25631 0.37483,0 0.59256,-0.25631 0.22049,-0.25907 0.22049,-0.7028 0,-0.44648 -0.22049,-0.7028 -0.21773,-0.25631 -0.59256,-0.25631 z m 1.10519,-1.7446 v 0.50712 q -0.20946,-0.0992 -0.42444,-0.15159 -0.21221,-0.0524 -0.42167,-0.0524 -0.55122,0 -0.84336,0.37207 -0.28939,0.37207 -0.33073,1.12448 0.16261,-0.23978 0.4079,-0.36656 0.24529,-0.12954 0.54019,-0.12954 0.62011,0 0.9784,0.37759 0.36105,0.37482 0.36105,1.0225 0,0.6339 -0.37483,1.01699 -0.37482,0.3831 -0.9977,0.3831 -0.71382,0 -1.0914,-0.54571 -0.37758,-0.54846 -0.37758,-1.5875 0,-0.97565 0.46302,-1.55442 0.46302,-0.58153 1.24299,-0.58153 0.20946,0 0.42168,0.0413 0.21497,0.0413 0.44648,0.12402 z"
         style="stroke-width:0.264583"
         id="path9676" />
    </g>
    <g
       aria-label="7"
       id="text9623"
       style="font-size:5.64444px;line-height:1.25;font-family:sans-serif;stroke-width:0.264583">
      <path
         d="m 113.856,163.95238 h 2.64583 v 0.23702 l -1.49379,3.8778 h -0.58153 l 1.4056,-3.64629 H 113.856 Z"
         style="stroke-width:0.264583"
         id="path9682" />
    </g>
    <g
       aria-label="8"
       id="text9627"
       style="font-size:5.64444px;line-height:1.25;font-family:sans-serif;stroke-width:0.264583"
       transform="translate(-75.260172,49.168403)">
      <path
         d="m 203.75645,117.01916 q -0.39687,0 -0.62562,0.21221 -0.226,0.21222 -0.226,0.58429 0,0.37207 0.226,0.58429 0.22875,0.21222 0.62562,0.21222 0.39688,0 0.62563,-0.21222 0.22876,-0.21497 0.22876,-0.58429 0,-0.37207 -0.22876,-0.58429 -0.226,-0.21221 -0.62563,-0.21221 z m -0.55672,-0.23703 q -0.35829,-0.0882 -0.55949,-0.33348 -0.19843,-0.24529 -0.19843,-0.59807 0,-0.49334 0.35002,-0.77997 0.35278,-0.28663 0.96462,-0.28663 0.61461,0 0.96463,0.28663 0.35002,0.28663 0.35002,0.77997 0,0.35278 -0.20119,0.59807 -0.19844,0.24529 -0.55397,0.33348 0.40238,0.0937 0.62563,0.36656 0.22599,0.27285 0.22599,0.66697 0,0.59807 -0.36655,0.91777 -0.36381,0.31971 -1.04456,0.31971 -0.68075,0 -1.0473,-0.31971 -0.36381,-0.3197 -0.36381,-0.91777 0,-0.39412 0.226,-0.66697 0.226,-0.27285 0.62839,-0.36656 z m -0.20395,-0.87918 q 0,0.3197 0.19843,0.49885 0.2012,0.17914 0.56224,0.17914 0.35829,0 0.55949,-0.17914 0.20395,-0.17915 0.20395,-0.49885 0,-0.31971 -0.20395,-0.49885 -0.2012,-0.17915 -0.55949,-0.17915 -0.36104,0 -0.56224,0.17915 -0.19843,0.17914 -0.19843,0.49885 z"
         style="stroke-width:0.264583"
         id="path9670" />
    </g>
    <g
       aria-label="9"
       id="text9631"
       style="font-size:5.64444px;line-height:1.25;font-family:sans-serif;stroke-width:0.264583">
      <path
         d="m 140.57892,168.05618 v -0.50712 q 0.20946,0.0992 0.42443,0.15158 0.21498,0.0524 0.42168,0.0524 0.55122,0 0.84061,-0.36931 0.29214,-0.37207 0.33348,-1.12724 -0.15985,0.23702 -0.40514,0.3638 -0.24529,0.12678 -0.54295,0.12678 -0.61736,0 -0.97841,-0.37207 -0.35829,-0.37482 -0.35829,-1.0225 0,-0.6339 0.37483,-1.01699 0.37483,-0.3831 0.9977,-0.3831 0.71382,0 1.08865,0.54846 0.37758,0.54571 0.37758,1.5875 0,0.9729 -0.46302,1.55443 -0.46026,0.57877 -1.24023,0.57877 -0.20946,0 -0.42444,-0.0413 -0.21497,-0.0413 -0.44648,-0.12402 z m 1.10794,-1.7446 q 0.37483,0 0.59256,-0.25631 0.22048,-0.25632 0.22048,-0.7028 0,-0.44373 -0.22048,-0.70004 -0.21773,-0.25907 -0.59256,-0.25907 -0.37483,0 -0.59531,0.25907 -0.21773,0.25631 -0.21773,0.70004 0,0.44648 0.21773,0.7028 0.22048,0.25631 0.59531,0.25631 z"
         style="stroke-width:0.264583"
         id="path9700" />
    </g>
    <g
       aria-label="10"
       id="text9635"
       style="font-size:5.64444px;line-height:1.25;font-family:sans-serif;stroke-width:0.264583"
       transform="translate(-156.45971,57.105903)">
      <path
         d="m 308.49564,110.56718 h 0.9095 v -3.13917 l -0.98943,0.19844 v -0.50712 l 0.98392,-0.19844 h 0.55673 v 3.64629 h 0.9095 v 0.46853 h -2.37022 z"
         style="stroke-width:0.264583"
         id="path9695" />
      <path
         d="m 313.18096,107.28745 q -0.42995,0 -0.64768,0.42444 -0.21497,0.42168 -0.21497,1.27055 0,0.84611 0.21497,1.27055 0.21773,0.42168 0.64768,0.42168 0.43271,0 0.64768,-0.42168 0.21773,-0.42444 0.21773,-1.27055 0,-0.84887 -0.21773,-1.27055 -0.21497,-0.42444 -0.64768,-0.42444 z m 0,-0.44097 q 0.69178,0 1.05558,0.54846 0.36656,0.5457 0.36656,1.5875 0,1.03904 -0.36656,1.5875 -0.3638,0.5457 -1.05558,0.5457 -0.69177,0 -1.05833,-0.5457 -0.3638,-0.54846 -0.3638,-1.5875 0,-1.0418 0.3638,-1.5875 0.36656,-0.54846 1.05833,-0.54846 z"
         style="stroke-width:0.264583"
         id="path9697" />
    </g>
    <g
       aria-label="11"
       id="text9639"
       style="font-size:5.64444px;line-height:1.25;font-family:sans-serif;stroke-width:0.264583"
       transform="translate(-0.26458074)">
      <path
         d="m 165.52968,167.59867 h 0.9095 v -3.13917 l -0.98943,0.19844 v -0.50712 l 0.98392,-0.19844 h 0.55673 v 3.64629 h 0.9095 v 0.46853 h -2.37022 z"
         style="stroke-width:0.264583"
         id="path9703" />
      <path
         d="m 169.12084,167.59867 h 0.90951 v -3.13917 l -0.98943,0.19844 v -0.50712 l 0.98392,-0.19844 h 0.55672 v 3.64629 h 0.90951 v 0.46853 h -2.37023 z"
         style="stroke-width:0.264583"
         id="path9705" />
    </g>
    <g
       aria-label="12"
       id="text9643"
       style="font-size:5.64444px;line-height:1.25;font-family:sans-serif;stroke-width:0.264583">
      <path
         d="m 178.49426,167.67308 h 0.90951 v -3.13916 l -0.98943,0.19843 v -0.50711 l 0.98392,-0.19844 h 0.55672 v 3.64628 h 0.90951 v 0.46854 h -2.37023 z"
         style="stroke-width:0.264583"
         id="path9708" />
      <path
         d="m 182.46852,167.67308 h 1.94303 v 0.46854 h -2.61275 v -0.46854 q 0.31694,-0.32797 0.86265,-0.87918 0.54846,-0.55397 0.68902,-0.71383 0.26733,-0.30041 0.37207,-0.50711 0.10748,-0.20947 0.10748,-0.41066 0,-0.32797 -0.23151,-0.53468 -0.22875,-0.2067 -0.59807,-0.2067 -0.26182,0 -0.55397,0.0909 -0.28938,0.091 -0.62011,0.2756 v -0.56223 q 0.33624,-0.13505 0.62838,-0.20395 0.29215,-0.0689 0.53468,-0.0689 0.63941,0 1.01975,0.31971 0.38034,0.3197 0.38034,0.85438 0,0.25356 -0.0965,0.48231 -0.0937,0.226 -0.34451,0.53468 -0.0689,0.0799 -0.43821,0.46302 -0.36932,0.38034 -1.0418,1.0666 z"
         style="stroke-width:0.264583"
         id="path9710" />
    </g>
    <g
       aria-label="13"
       id="text9647"
       style="font-size:5.64444px;line-height:1.25;font-family:sans-serif;stroke-width:0.264583">
      <path
         d="m 191.72343,167.67308 h 0.90951 v -3.13916 l -0.98943,0.19843 v -0.50711 l 0.98392,-0.19844 h 0.55672 v 3.64628 h 0.90951 v 0.46854 h -2.37023 z"
         style="stroke-width:0.264583"
         id="path9713" />
      <path
         d="m 196.90485,165.92298 q 0.39964,0.0854 0.62288,0.35553 0.226,0.2701 0.226,0.66697 0,0.60909 -0.41893,0.94258 -0.41892,0.33348 -1.19062,0.33348 -0.25907,0 -0.53468,-0.0524 -0.27285,-0.0496 -0.565,-0.15159 v -0.53743 q 0.23151,0.13505 0.50712,0.20395 0.27561,0.0689 0.57602,0.0689 0.52366,0 0.79651,-0.20671 0.2756,-0.2067 0.2756,-0.60082 0,-0.3638 -0.25631,-0.56775 -0.25356,-0.20671 -0.70831,-0.20671 h -0.47956 v -0.4575 h 0.50161 q 0.41065,0 0.62838,-0.16261 0.21773,-0.16537 0.21773,-0.47405 0,-0.31695 -0.226,-0.48507 -0.22324,-0.17087 -0.64216,-0.17087 -0.22876,0 -0.49058,0.0496 -0.26183,0.0496 -0.57602,0.15434 v -0.4961 q 0.31695,-0.0882 0.59255,-0.13229 0.27837,-0.0441 0.52366,-0.0441 0.63389,0 1.00321,0.28939 0.36931,0.28663 0.36931,0.77721 0,0.34176 -0.19568,0.57878 -0.19568,0.23427 -0.55673,0.32522 z"
         style="stroke-width:0.264583"
         id="path9715" />
    </g>
    <g
       aria-label="14"
       id="text9651"
       style="font-size:5.64444px;line-height:1.25;font-family:sans-serif;stroke-width:0.264583">
      <path
         d="m 204.95259,167.59867 h 0.90951 v -3.13917 l -0.98944,0.19844 v -0.50712 l 0.98392,-0.19844 h 0.55673 v 3.64629 h 0.9095 v 0.46853 h -2.37022 z"
         style="stroke-width:0.264583"
         id="path9718" />
      <path
         d="m 209.97691,164.43745 -1.40559,2.19659 h 1.40559 z m -0.14607,-0.48507 h 0.70005 v 2.68166 h 0.58704 v 0.46302 h -0.58704 v 0.97014 h -0.55398 v -0.97014 h -1.85759 v -0.53743 z"
         style="stroke-width:0.264583"
         id="path9720" />
    </g>
    <g
       aria-label="15"
       id="text9655"
       style="font-size:5.64444px;line-height:1.25;font-family:sans-serif;stroke-width:0.264583"
       transform="translate(-106.18887,-62.031007)">
      <path
         d="m 324.37064,229.62967 h 0.9095 v -3.13917 l -0.98943,0.19844 v -0.50712 l 0.98392,-0.19843 h 0.55673 v 3.64628 h 0.9095 v 0.46854 h -2.37022 z"
         style="stroke-width:0.264583"
         id="path9723" />
      <path
         d="m 327.87085,225.98339 h 2.18557 v 0.46853 h -1.6757 v 1.00872 q 0.12127,-0.0413 0.24254,-0.0606 0.12127,-0.0221 0.24253,-0.0221 0.68902,0 1.09141,0.37758 0.40239,0.37758 0.40239,1.02251 0,0.66421 -0.41342,1.03352 -0.41341,0.36656 -1.16581,0.36656 -0.25908,0 -0.52917,-0.0441 -0.26734,-0.0441 -0.55397,-0.13229 v -0.55948 q 0.24804,0.13505 0.51263,0.20119 0.26458,0.0661 0.55948,0.0661 0.4768,0 0.75517,-0.2508 0.27836,-0.25081 0.27836,-0.68075 0,-0.42995 -0.27836,-0.68075 -0.27837,-0.25081 -0.75517,-0.25081 -0.22324,0 -0.44648,0.0496 -0.22049,0.0496 -0.452,0.15434 z"
         style="stroke-width:0.264583"
         id="path9725" />
    </g>
    <g
       aria-label="16"
       id="text9659"
       style="font-size:5.64444px;line-height:1.25;font-family:sans-serif;stroke-width:0.264583">
      <path
         d="m 231.41093,167.67308 h 0.90951 v -3.13916 l -0.98943,0.19843 v -0.50711 l 0.98392,-0.19844 h 0.55672 v 3.64628 h 0.90951 v 0.46854 h -2.37023 z"
         style="stroke-width:0.264583"
         id="path9728" />
      <path
         d="m 236.16516,165.86234 q -0.37482,0 -0.59531,0.25632 -0.21773,0.25631 -0.21773,0.7028 0,0.44373 0.21773,0.7028 0.22049,0.25631 0.59531,0.25631 0.37483,0 0.59256,-0.25631 0.22048,-0.25907 0.22048,-0.7028 0,-0.44649 -0.22048,-0.7028 -0.21773,-0.25632 -0.59256,-0.25632 z m 1.10519,-1.74459 v 0.50712 q -0.20946,-0.0992 -0.42444,-0.15159 -0.21221,-0.0524 -0.42168,-0.0524 -0.55121,0 -0.84335,0.37207 -0.28939,0.37207 -0.33073,1.12447 0.1626,-0.23977 0.4079,-0.36655 0.24529,-0.12954 0.54019,-0.12954 0.62011,0 0.9784,0.37758 0.36105,0.37483 0.36105,1.02251 0,0.63389 -0.37483,1.01699 -0.37482,0.38309 -0.9977,0.38309 -0.71382,0 -1.0914,-0.5457 -0.37758,-0.54846 -0.37758,-1.5875 0,-0.97565 0.46302,-1.55442 0.46302,-0.58154 1.24299,-0.58154 0.20946,0 0.42167,0.0413 0.21498,0.0413 0.44649,0.12403 z"
         style="stroke-width:0.264583"
         id="path9730" />
    </g>
    <g
       aria-label="G"
       id="text9735"
       style="font-size:3.52778px;line-height:1.25;font-family:sans-serif;stroke-width:0.264583"
       transform="translate(59.068583,56.857821)">
      <path
         d="m 204.06204,134.4813 v -0.69074 h -0.56845 v -0.28594 h 0.91296 v 1.10415 q -0.20154,0.14297 -0.44442,0.21704 -0.24288,0.0724 -0.51849,0.0724 -0.60289,0 -0.94396,-0.3514 -0.33934,-0.35312 -0.33934,-0.98185 0,-0.63046 0.33934,-0.98185 0.34107,-0.35313 0.94396,-0.35313 0.25149,0 0.47715,0.062 0.22737,0.062 0.41858,0.18259 v 0.37035 q -0.19293,-0.16364 -0.40997,-0.24632 -0.21704,-0.0827 -0.45648,-0.0827 -0.47197,0 -0.70969,0.26355 -0.23598,0.26355 -0.23598,0.78548 0,0.52021 0.23598,0.78376 0.23772,0.26355 0.70969,0.26355 0.18432,0 0.32901,-0.031 0.14469,-0.0327 0.26011,-0.0999 z"
         style="font-size:3.52778px;stroke-width:0.264583"
         id="path9737" />
    </g>
    <g
       aria-label="V"
       id="text9742"
       style="font-size:3.52778px;line-height:1.25;font-family:sans-serif;stroke-width:0.264583">
      <path
         d="m 248.98161,191.65956 -0.98185,-2.57176 h 0.36346 l 0.81476,2.16524 0.81649,-2.16524 h 0.36174 l -0.98013,2.57176 z"
         style="font-size:3.52778px;stroke-width:0.264583"
         id="path9748" />
    </g>
    <g
       aria-label="T"
       id="text9746"
       style="font-size:3.52778px;line-height:1.25;font-family:sans-serif;stroke-width:0.264583">
      <path
         d="m 274.45808,189.0878 h 2.17558 v 0.29283 h -0.91295 v 2.27893 h -0.34968 v -2.27893 h -0.91295 z"
         style="font-size:3.52778px;stroke-width:0.264583"
         id="path9751" />
    </g>
  </g>
  <g
     inkscape:groupmode="layer"
     id="layer3"
     inkscape:label="components" />
</svg>
