<?xml version="1.0" encoding="UTF-8" standalone="no"?>
<svg
   xmlns:dc="http://purl.org/dc/elements/1.1/"
   xmlns:cc="http://creativecommons.org/ns#"
   xmlns:rdf="http://www.w3.org/1999/02/22-rdf-syntax-ns#"
   xmlns:svg="http://www.w3.org/2000/svg"
   xmlns="http://www.w3.org/2000/svg"
   xmlns:sodipodi="http://sodipodi.sourceforge.net/DTD/sodipodi-0.dtd"
   xmlns:inkscape="http://www.inkscape.org/namespaces/inkscape"
   width="355.60001mm"
   height="128.5mm"
   viewBox="0 0 355.60001 128.50001"
   version="1.1"
   id="svg12553"
   inkscape:version="1.0.1 (3bc2e813f5, 2020-09-07)"
   sodipodi:docname="ChanceSeq.svg">
  <defs
     id="defs12547" />
  <sodipodi:namedview
     id="base"
     pagecolor="#ffffff"
     bordercolor="#666666"
     borderopacity="1.0"
     inkscape:pageopacity="0.0"
     inkscape:pageshadow="2"
     inkscape:zoom="1.4"
     inkscape:cx="541.69364"
     inkscape:cy="-23.424223"
     inkscape:document-units="mm"
     inkscape:current-layer="layer1"
     showgrid="true"
     fit-margin-top="0"
     fit-margin-left="0"
     fit-margin-right="0"
     fit-margin-bottom="0"
     units="mm"
     inkscape:window-width="1514"
     inkscape:window-height="1016"
     inkscape:window-x="90"
     inkscape:window-y="27"
     inkscape:window-maximized="0"
     inkscape:document-rotation="0"
     height="128mm"
     showguides="false">
    <inkscape:grid
       type="xygrid"
       id="grid12870"
       originx="-20.372917"
       originy="84.666661" />
  </sodipodi:namedview>
  <metadata
     id="metadata12550">
    <rdf:RDF>
      <cc:Work
         rdf:about="">
        <dc:format>image/svg+xml</dc:format>
        <dc:type
           rdf:resource="http://purl.org/dc/dcmitype/StillImage" />
        <dc:title></dc:title>
      </cc:Work>
    </rdf:RDF>
  </metadata>
  <g
     inkscape:label="Layer 1"
     inkscape:groupmode="layer"
     id="layer1"
     transform="translate(-26.543497,-161.30655)">
    <path
       inkscape:connector-curvature="0"
       id="path33453"
       d="M 26.543497,161.30654 H 382.1435 v 128.5 H 26.543497 Z m 0,0"
       style="fill:#e6e6e6;fill-opacity:1;fill-rule:nonzero;stroke:none;stroke-width:0.630259" />
    <g
       aria-label="Clock "
       id="text354"
       style="font-style:normal;font-weight:normal;font-size:4.23333px;line-height:1.25;font-family:sans-serif;fill:#000000;fill-opacity:1;stroke:none;stroke-width:0.264583"
       transform="translate(-11.689075,-35.020092)">
      <path
         d="m 49.032232,174.33315 v 0.44028 q -0.210839,-0.19637 -0.450618,-0.29352 -0.237711,-0.0971 -0.506428,-0.0971 -0.529167,0 -0.810286,0.32452 -0.28112,0.32246 -0.28112,0.93431 0,0.60978 0.28112,0.93431 0.281119,0.32246 0.810286,0.32246 0.268717,0 0.506428,-0.0971 0.239779,-0.0971 0.450618,-0.29352 v 0.43615 q -0.219107,0.14883 -0.465087,0.22324 -0.243913,0.0744 -0.516764,0.0744 -0.700732,0 -1.103808,-0.42788 -0.403075,-0.42994 -0.403075,-1.17202 0,-0.74414 0.403075,-1.17202 0.403076,-0.42995 1.103808,-0.42995 0.276985,0 0.520898,0.0744 0.24598,0.0724 0.460953,0.21911 z"
         style="font-size:4.23333px;stroke-width:0.264583"
         id="path358" />
      <path
         d="m 49.660617,173.96521 h 0.380339 v 3.21634 h -0.380339 z"
         style="font-size:4.23333px;stroke-width:0.264583"
         id="path360" />
      <path
         d="m 51.733874,175.1331 q -0.305924,0 -0.483691,0.23978 -0.177767,0.23771 -0.177767,0.65319 0,0.41547 0.1757,0.65525 0.177767,0.23771 0.485758,0.23771 0.303857,0 0.481624,-0.23978 0.177767,-0.23977 0.177767,-0.65318 0,-0.41135 -0.177767,-0.65113 -0.177767,-0.24184 -0.481624,-0.24184 z m 0,-0.32246 q 0.496093,0 0.77928,0.32246 0.283186,0.32246 0.283186,0.89297 0,0.56844 -0.283186,0.89296 -0.283187,0.32246 -0.77928,0.32246 -0.498161,0 -0.781347,-0.32246 -0.28112,-0.32452 -0.28112,-0.89296 0,-0.57051 0.28112,-0.89297 0.283186,-0.32246 0.781347,-0.32246 z"
         style="font-size:4.23333px;stroke-width:0.264583"
         id="path362" />
      <path
         d="m 55.09284,174.95533 v 0.35553 q -0.161231,-0.0889 -0.324528,-0.13229 -0.16123,-0.0455 -0.326595,-0.0455 -0.370003,0 -0.574641,0.23564 -0.204639,0.23358 -0.204639,0.65733 0,0.42374 0.204639,0.65939 0.204638,0.23357 0.574641,0.23357 0.165365,0 0.326595,-0.0434 0.163297,-0.0455 0.324528,-0.13435 v 0.3514 q -0.159164,0.0744 -0.330729,0.11162 -0.169499,0.0372 -0.361735,0.0372 -0.522965,0 -0.830956,-0.32866 -0.307992,-0.32866 -0.307992,-0.88676 0,-0.56638 0.310059,-0.89091 0.312125,-0.32452 0.853694,-0.32452 0.175699,0 0.343131,0.0372 0.167431,0.0351 0.324528,0.10749 z"
         style="font-size:4.23333px;stroke-width:0.264583"
         id="path364" />
      <path
         d="m 55.739828,173.96521 h 0.382405 v 1.89962 l 1.134813,-0.99838 h 0.485758 l -1.227831,1.08313 1.279508,1.23197 h -0.496094 l -1.176154,-1.13068 v 1.13068 h -0.382405 z"
         style="font-size:4.23333px;stroke-width:0.264583"
         id="path366" />
    </g>
    <g
       aria-label="Run "
       id="text371"
       style="font-style:normal;font-weight:normal;font-size:2.82222px;line-height:1.25;font-family:sans-serif;fill:#000000;fill-opacity:1;stroke:none;stroke-width:0.264583"
       transform="translate(7.781762,-35.061452)">
      <path
         d="m 42.864979,178.27433 q 0.08957,0.0303 0.173632,0.12953 0.08544,0.0992 0.170877,0.27285 l 0.282498,0.56224 h -0.299035 l -0.263205,-0.52779 q -0.101974,-0.2067 -0.198437,-0.27422 -0.09509,-0.0675 -0.260449,-0.0675 h -0.303168 v 0.86954 h -0.278364 v -2.05741 h 0.628385 q 0.352778,0 0.52641,0.14745 0.173633,0.14745 0.173633,0.44511 0,0.1943 -0.09095,0.32246 -0.08957,0.12816 -0.261827,0.17777 z m -0.697287,-0.86403 v 0.73036 h 0.350021 q 0.201194,0 0.303168,-0.0923 0.103353,-0.0937 0.103353,-0.27423 0,-0.18052 -0.103353,-0.27147 -0.101974,-0.0923 -0.303168,-0.0923 z"
         style="font-size:2.82222px;stroke-width:0.264583"
         id="path375" />
      <path
         d="m 43.686289,178.62986 v -0.93431 h 0.253559 v 0.92466 q 0,0.21911 0.08544,0.32935 0.08544,0.10887 0.256315,0.10887 0.205327,0 0.323839,-0.13091 0.119889,-0.13092 0.119889,-0.35692 v -0.87505 h 0.253559 v 1.5434 h -0.253559 v -0.23702 q -0.09233,0.14056 -0.214974,0.20946 -0.121267,0.0675 -0.282498,0.0675 -0.265961,0 -0.403765,-0.16537 -0.137803,-0.16536 -0.137803,-0.48369 z m 0.638031,-0.97152 z"
         style="font-size:2.82222px;stroke-width:0.264583"
         id="path377" />
      <path
         d="m 46.784116,178.3074 v 0.93155 h -0.253559 v -0.92328 q 0,-0.21911 -0.08544,-0.32798 -0.08544,-0.10886 -0.256315,-0.10886 -0.205327,0 -0.323838,0.13091 -0.118512,0.13092 -0.118512,0.35692 v 0.87229 h -0.254937 v -1.5434 h 0.254937 v 0.23978 q 0.09095,-0.13918 0.213596,-0.20808 0.124023,-0.0689 0.285254,-0.0689 0.265961,0 0.402387,0.16537 0.136425,0.16398 0.136425,0.48369 z"
         style="font-size:2.82222px;stroke-width:0.264583"
         id="path379" />
    </g>
    <g
       aria-label="Reset"
       id="text384"
       style="font-size:2.82222px;line-height:1.25;font-family:sans-serif;stroke-width:0.264583"
       transform="translate(-3.8723117,-33.004042)">
      <path
         d="m 68.277386,176.21692 q 0.08957,0.0303 0.173633,0.12954 0.08544,0.0992 0.170877,0.27285 l 0.282498,0.56224 H 68.60536 l -0.263206,-0.52779 q -0.101975,-0.20671 -0.198437,-0.27423 -0.09508,-0.0675 -0.260449,-0.0675 h -0.303169 v 0.86954 h -0.278364 v -2.05741 h 0.628386 q 0.352778,0 0.52641,0.14745 0.173633,0.14745 0.173633,0.4451 0,0.19431 -0.09095,0.32247 -0.08957,0.12815 -0.261828,0.17776 z m -0.697287,-0.86403 v 0.73036 h 0.350022 q 0.201193,0 0.303168,-0.0923 0.103353,-0.0937 0.103353,-0.27423 0,-0.18052 -0.103353,-0.27147 -0.101975,-0.0923 -0.303168,-0.0923 z"
         style="font-size:2.82222px;stroke-width:0.264583"
         id="path386" />
      <path
         d="m 70.445041,176.34646 v 0.12402 H 69.27922 q 0.01654,0.26183 0.157097,0.39963 0.141937,0.13643 0.394118,0.13643 0.146073,0 0.282498,-0.0358 0.137804,-0.0358 0.272852,-0.10749 v 0.23978 q -0.136426,0.0579 -0.279742,0.0882 -0.143316,0.0303 -0.290766,0.0303 -0.369314,0 -0.585666,-0.21497 -0.214974,-0.21498 -0.214974,-0.58153 0,-0.37896 0.20395,-0.60083 0.205327,-0.22324 0.552593,-0.22324 0.311436,0 0.491959,0.20119 0.181902,0.19982 0.181902,0.54433 z m -0.25356,-0.0744 q -0.0028,-0.20808 -0.117133,-0.3321 -0.112999,-0.12403 -0.300412,-0.12403 -0.212218,0 -0.340376,0.11989 -0.126779,0.11989 -0.146072,0.33762 z"
         style="font-size:2.82222px;stroke-width:0.264583"
         id="path388" />
      <path
         d="m 71.845127,175.68362 v 0.23978 q -0.107487,-0.0551 -0.223242,-0.0827 -0.115755,-0.0276 -0.239778,-0.0276 -0.188792,0 -0.283876,0.0579 -0.09371,0.0579 -0.09371,0.17364 0,0.0882 0.06752,0.13918 0.06752,0.0496 0.271474,0.0951 l 0.08682,0.0193 q 0.270095,0.0579 0.383095,0.16398 0.114377,0.10473 0.114377,0.29353 0,0.21497 -0.170877,0.34037 -0.169499,0.1254 -0.467155,0.1254 -0.124023,0 -0.259071,-0.0248 -0.13367,-0.0234 -0.282498,-0.0717 v -0.26183 q 0.14056,0.073 0.276986,0.11025 0.136425,0.0358 0.270095,0.0358 0.179145,0 0.275608,-0.0606 0.09646,-0.062 0.09646,-0.17363 0,-0.10336 -0.07028,-0.15848 -0.0689,-0.0551 -0.304547,-0.10611 l -0.08819,-0.0207 q -0.235645,-0.0496 -0.340376,-0.15158 -0.104731,-0.10335 -0.104731,-0.2825 0,-0.21773 0.154341,-0.33624 0.15434,-0.11851 0.438216,-0.11851 0.14056,0 0.264583,0.0207 0.124024,0.0207 0.228754,0.062 z"
         style="font-size:2.82222px;stroke-width:0.264583"
         id="path390" />
      <path
         d="m 73.651735,176.34646 v 0.12402 h -1.16582 q 0.01654,0.26183 0.157096,0.39963 0.141938,0.13643 0.394119,0.13643 0.146072,0 0.282498,-0.0358 0.137804,-0.0358 0.272852,-0.10749 v 0.23978 q -0.136426,0.0579 -0.279742,0.0882 -0.143316,0.0303 -0.290766,0.0303 -0.369314,0 -0.585666,-0.21497 -0.214974,-0.21498 -0.214974,-0.58153 0,-0.37896 0.203949,-0.60083 0.205328,-0.22324 0.552594,-0.22324 0.311436,0 0.491959,0.20119 0.181901,0.19982 0.181901,0.54433 z m -0.253559,-0.0744 q -0.0028,-0.20808 -0.117133,-0.3321 -0.112999,-0.12403 -0.300412,-0.12403 -0.212218,0 -0.340376,0.11989 -0.126779,0.11989 -0.146072,0.33762 z"
         style="font-size:2.82222px;stroke-width:0.264583"
         id="path392" />
      <path
         d="m 74.318706,175.19993 v 0.43822 h 0.522276 v 0.19706 h -0.522276 v 0.83784 q 0,0.18879 0.05099,0.24254 0.05237,0.0537 0.21084,0.0537 h 0.260449 v 0.21222 h -0.260449 q -0.293522,0 -0.405143,-0.10887 -0.111621,-0.11024 -0.111621,-0.39963 v -0.83784 h -0.186036 v -0.19706 h 0.186036 v -0.43822 z"
         style="font-size:2.82222px;stroke-width:0.264583"
         id="path394" />
    </g>
    <g
       aria-label="Steps"
       id="text399"
       style="font-size:4.23333px;line-height:1.25;font-family:sans-serif;stroke-width:0.264583"
       transform="translate(1.9609263,-35.061432)">
      <path
         d="m 75.096601,174.16364 v 0.40721 q -0.237711,-0.11369 -0.448551,-0.1695 -0.21084,-0.0558 -0.40721,-0.0558 -0.341064,0 -0.527099,0.13229 -0.183968,0.13229 -0.183968,0.37621 0,0.20463 0.121956,0.31005 0.124023,0.10336 0.467155,0.16744 l 0.25218,0.0517 q 0.467155,0.0889 0.68833,0.3142 0.223242,0.22324 0.223242,0.59944 0,0.44855 -0.30179,0.68006 -0.299723,0.23151 -0.880566,0.23151 -0.219108,0 -0.467154,-0.0496 -0.24598,-0.0496 -0.510563,-0.14676 v -0.42995 q 0.254248,0.14263 0.49816,0.21498 0.243913,0.0724 0.479557,0.0724 0.357601,0 0.551904,-0.14056 0.194303,-0.14056 0.194303,-0.40101 0,-0.22738 -0.14056,-0.35554 -0.138492,-0.12815 -0.456819,-0.19223 l -0.254248,-0.0496 q -0.467154,-0.093 -0.675927,-0.29146 -0.208772,-0.19843 -0.208772,-0.5519 0,-0.40928 0.28732,-0.64492 0.289388,-0.23565 0.795817,-0.23565 0.217041,0 0.44235,0.0393 0.225309,0.0393 0.460953,0.11782 z"
         style="stroke-width:0.264583"
         id="path401" />
      <path
         d="m 76.293426,174.17604 v 0.65733 h 0.783414 v 0.29558 h -0.783414 v 1.25677 q 0,0.28319 0.07648,0.36381 0.07855,0.0806 0.31626,0.0806 h 0.390673 v 0.31833 h -0.390673 q -0.440283,0 -0.607715,-0.1633 -0.167431,-0.16536 -0.167431,-0.59945 v -1.25677 h -0.279053 v -0.29558 h 0.279053 v -0.65733 z"
         style="stroke-width:0.264583"
         id="path403" />
      <path
         d="m 79.557307,175.89583 v 0.18604 h -1.748729 q 0.0248,0.39274 0.235644,0.59944 0.212907,0.20464 0.591178,0.20464 0.219108,0 0.423746,-0.0537 0.206706,-0.0537 0.409277,-0.16123 v 0.35967 q -0.204638,0.0868 -0.419612,0.13229 -0.214974,0.0455 -0.436149,0.0455 -0.55397,0 -0.878498,-0.32246 -0.322461,-0.32246 -0.322461,-0.8723 0,-0.56844 0.305924,-0.90123 0.307992,-0.33486 0.82889,-0.33486 0.467154,0 0.737938,0.30179 0.272852,0.29972 0.272852,0.81648 z m -0.380338,-0.11162 q -0.0041,-0.31212 -0.1757,-0.49816 -0.169499,-0.18603 -0.450618,-0.18603 -0.318327,0 -0.510563,0.17983 -0.190169,0.17983 -0.219108,0.50643 z"
         style="stroke-width:0.264583"
         id="path405" />
      <path
         d="m 80.549493,176.8012 v 1.22783 h -0.382405 v -3.19566 h 0.382405 v 0.3514 q 0.119889,-0.20671 0.30179,-0.30593 0.183968,-0.10128 0.438216,-0.10128 0.421679,0 0.684196,0.33486 0.264583,0.33486 0.264583,0.88056 0,0.54571 -0.264583,0.88057 -0.262517,0.33486 -0.684196,0.33486 -0.254248,0 -0.438216,-0.0992 -0.181901,-0.10128 -0.30179,-0.30799 z m 1.293977,-0.80822 q 0,-0.41961 -0.173633,-0.65732 -0.171565,-0.23978 -0.473355,-0.23978 -0.30179,0 -0.475423,0.23978 -0.171566,0.23771 -0.171566,0.65732 0,0.41962 0.171566,0.65939 0.173633,0.23772 0.475423,0.23772 0.30179,0 0.473355,-0.23772 0.173633,-0.23977 0.173633,-0.65939 z"
         style="stroke-width:0.264583"
         id="path407" />
      <path
         d="m 84.344607,174.90158 v 0.35967 q -0.16123,-0.0827 -0.334863,-0.12403 -0.173633,-0.0413 -0.359668,-0.0413 -0.283186,0 -0.425813,0.0868 -0.14056,0.0868 -0.14056,0.26045 0,0.13229 0.101286,0.20877 0.101286,0.0744 0.40721,0.14263 l 0.130224,0.0289 q 0.405143,0.0868 0.574642,0.24598 0.171565,0.15709 0.171565,0.44028 0,0.32246 -0.256315,0.51056 -0.254247,0.1881 -0.700731,0.1881 -0.186035,0 -0.388607,-0.0372 -0.200504,-0.0351 -0.423746,-0.10749 v -0.39274 q 0.210839,0.10955 0.415478,0.16536 0.204638,0.0537 0.405143,0.0537 0.268717,0 0.413411,-0.0909 0.144694,-0.093 0.144694,-0.26045 0,-0.15503 -0.10542,-0.23771 -0.103353,-0.0827 -0.456819,-0.15917 l -0.132292,-0.031 q -0.353466,-0.0744 -0.510563,-0.22738 -0.157096,-0.15503 -0.157096,-0.42375 0,-0.32659 0.23151,-0.50436 0.231511,-0.17776 0.657324,-0.17776 0.21084,0 0.396875,0.031 0.186035,0.031 0.343131,0.093 z"
         style="stroke-width:0.264583"
         id="path409" />
    </g>
    <g
       aria-label="EXT CLK  "
       id="text414"
       style="font-size:2.82223px;line-height:1.25;font-family:sans-serif;stroke-width:0.264583"
       transform="translate(1.9609263,-35.061432)">
      <path
         d="m 46.65183,190.62432 h 1.300872 v 0.23426 h -1.022507 v 0.6091 h 0.979787 v 0.23426 h -0.979787 v 0.74553 h 1.047311 v 0.23426 H 46.65183 Z"
         style="stroke-width:0.264583"
         id="path420" />
      <path
         d="m 48.335797,190.62432 h 0.299036 l 0.511253,0.76481 0.51401,-0.76481 h 0.299035 l -0.66146,0.98805 0.705557,1.06936 h -0.299035 l -0.578777,-0.87505 -0.582912,0.87505 h -0.300413 l 0.734496,-1.0983 z"
         style="stroke-width:0.264583"
         id="path422" />
      <path
         d="m 50.033545,190.62432 h 1.740467 v 0.23426 H 51.04365 v 1.82315 h -0.279743 v -1.82315 h -0.730362 z"
         style="stroke-width:0.264583"
         id="path424" />
      <path
         d="m 54.480487,190.78279 v 0.29352 q -0.14056,-0.13091 -0.300413,-0.19568 -0.158475,-0.0648 -0.337621,-0.0648 -0.352778,0 -0.540192,0.21636 -0.187414,0.21497 -0.187414,0.62287 0,0.40652 0.187414,0.62288 0.187414,0.21497 0.540192,0.21497 0.179146,0 0.337621,-0.0648 0.159853,-0.0648 0.300413,-0.19568 v 0.29077 q -0.146073,0.0992 -0.31006,0.14883 -0.162609,0.0496 -0.34451,0.0496 -0.467156,0 -0.735875,-0.28526 -0.268718,-0.28663 -0.268718,-0.78135 0,-0.49609 0.268718,-0.78135 0.268719,-0.28663 0.735875,-0.28663 0.184658,0 0.347267,0.0496 0.163987,0.0482 0.307303,0.14607 z"
         style="stroke-width:0.264583"
         id="path426" />
      <path
         d="M 54.910436,190.62432 H 55.1888 v 1.82315 h 1.001837 v 0.23426 h -1.280201 z"
         style="stroke-width:0.264583"
         id="path428" />
      <path
         d="m 56.482782,190.62432 h 0.278364 v 0.86954 l 0.923288,-0.86954 h 0.358291 l -1.021129,0.95911 1.094166,1.0983 h -0.36656 l -0.988056,-0.99081 v 0.99081 h -0.278364 z"
         style="stroke-width:0.264583"
         id="path430" />
    </g>
  </g>
  <g
     inkscape:groupmode="layer"
     id="layer3"
     inkscape:label="components" />
</svg>
